<svg width="26" height="26" viewBox="0 0 26 26" fill="none" xmlns="http://www.w3.org/2000/svg">
<path fill-rule="evenodd" clip-rule="evenodd" d="M17.9998 1.33337H21.8108C23.3876 1.33337 24.6667 2.62359 24.6667 4.21525V8.05816C24.6667 9.64862 23.3876 10.94 21.8108 10.94H17.9998C16.4218 10.94 15.1427 9.64862 15.1427 8.05816V4.21525C15.1427 2.62359 16.4218 1.33337 17.9998 1.33337Z" stroke="#484848" stroke-width="1.5" stroke-linecap="round" stroke-linejoin="round"/>
<path fill-rule="evenodd" clip-rule="evenodd" d="M4.19045 1.33337H8.00028C9.57825 1.33337 10.8574 2.62359 10.8574 4.21525V8.05816C10.8574 9.64862 9.57825 10.94 8.00028 10.94H4.19045C2.61248 10.94 1.33337 9.64862 1.33337 8.05816V4.21525C1.33337 2.62359 2.61248 1.33337 4.19045 1.33337Z" stroke="#484848" stroke-width="1.5" stroke-linecap="round" stroke-linejoin="round"/>
<path fill-rule="evenodd" clip-rule="evenodd" d="M4.19045 15.0601H8.00028C9.57825 15.0601 10.8574 16.3503 10.8574 17.9431V21.7848C10.8574 23.3765 9.57825 24.6667 8.00028 24.6667H4.19045C2.61248 24.6667 1.33337 23.3765 1.33337 21.7848V17.9431C1.33337 16.3503 2.61248 15.0601 4.19045 15.0601Z" stroke="#484848" stroke-width="1.5" stroke-linecap="round" stroke-linejoin="round"/>
<path fill-rule="evenodd" clip-rule="evenodd" d="M17.9998 15.0601H21.8108C23.3876 15.0601 24.6667 16.3503 24.6667 17.9431V21.7848C24.6667 23.3765 23.3876 24.6667 21.8108 24.6667H17.9998C16.4218 24.6667 15.1427 23.3765 15.1427 21.7848V17.9431C15.1427 16.3503 16.4218 15.0601 17.9998 15.0601Z" stroke="#484848" stroke-width="1.5" stroke-linecap="round" stroke-linejoin="round"/>
</svg>
