<svg width="25" height="24" viewBox="0 0 25 24" fill="none" xmlns="http://www.w3.org/2000/svg">
<path fill-rule="evenodd" clip-rule="evenodd" d="M13.5255 2.0143L16.2275 7.4498C16.3628 7.72397 16.6242 7.9153 16.9275 7.95963L22.9767 8.83347C23.2217 8.86613 23.4422 8.99447 23.5927 9.19047C23.875 9.55797 23.8318 10.0783 23.4935 10.3945L19.1092 14.6341C18.8863 14.8441 18.7872 15.1521 18.8455 15.452L19.8955 21.4346C19.969 21.9305 19.6307 22.3948 19.1348 22.4753C18.9295 22.5068 18.7195 22.4741 18.5328 22.382L13.1452 19.5575C12.8745 19.4105 12.5502 19.4105 12.2795 19.5575L6.85216 22.3971C6.39833 22.6281 5.84299 22.4566 5.59566 22.0121C5.50116 21.8325 5.46849 21.6283 5.50116 21.4288L6.55116 15.4461C6.60366 15.1475 6.50449 14.8406 6.28749 14.6295L1.87983 10.391C1.52049 10.034 1.51816 9.45297 1.87633 9.09363C1.87749 9.09247 1.87866 9.09014 1.87983 9.08897C2.02799 8.9548 2.20999 8.86497 2.40716 8.82997L8.45749 7.95613C8.75966 7.9083 9.01983 7.7193 9.15749 7.44513L11.8572 2.0143C11.9657 1.7938 12.1582 1.62464 12.3915 1.54764C12.626 1.46947 12.8827 1.48814 13.1032 1.59897C13.284 1.6888 13.4322 1.83464 13.5255 2.0143Z" stroke="#484848" stroke-width="1.5" stroke-linecap="round" stroke-linejoin="round"/>
</svg>
